<?xml version="1.0" encoding="utf-8"?>
<!-- Generator: Adobe Illustrator 16.0.0, SVG Export Plug-In . SVG Version: 6.00 Build 0)  -->
<!DOCTYPE svg PUBLIC "-//W3C//DTD SVG 1.1//EN" "http://www.w3.org/Graphics/SVG/1.1/DTD/svg11.dtd">
<svg version="1.1" id="Layer_1" xmlns="http://www.w3.org/2000/svg" xmlns:xlink="http://www.w3.org/1999/xlink" x="0px" y="0px"
	 width="403.2px" height="403.2px" viewBox="278.4 22.4 403.2 403.2" style="enable-background:new 278.4 22.4 403.2 403.2;"
	 xml:space="preserve">
<path d="M670.4,112H648v-11.2c0-6.2-5-11.2-11.2-11.2h-41.2c-16,0-31.8-2.6-47-7.6c-7.1-2.4-14.5-3.6-22-3.6
	c-15.7,0-30.5,5.2-42.7,14.7C461.7,50.3,417.1,22.4,368,22.4c-6.2,0-11.2,5-11.2,11.2v56h-33.6c-6.2,0-11.2,5-11.2,11.2V112h-22.4
	c-6.2,0-11.2,5-11.2,11.2v280c0,6.2,5,11.2,11.2,11.2h156.8c0,6.2,5,11.2,11.2,11.2h44.8c6.2,0,11.2-5,11.2-11.2h156.8
	c6.2,0,11.2-5,11.2-11.2v-280C681.6,117,676.6,112,670.4,112z M491.2,116.6l2-2.1c8.9-8.9,20.7-13.8,33.3-13.8
	c5.1,0,10.1,0.8,14.9,2.4c17.5,5.8,35.7,8.8,54.1,8.8h30v235.2h-30c-16,0-31.8-2.6-47-7.6c-7.1-2.4-14.5-3.6-22-3.6
	c-12.6,0-24.8,3.4-35.3,9.6V116.6z M379.2,45.4c40.1,4.2,75,30.7,89.6,68.8v213.7c-22-26.8-54.3-44.3-89.6-47.4V45.4z M334.4,112
	h22.4v179.2c0,6.2,5,11.2,11.2,11.2c30.8,0,59.5,13.2,79.5,35c-11.7-2.4-24.4-1.7-36.1,2.1c-15.2,5.1-31,7.6-47,7.6h-30V112z
	 M659.2,392H502.4c-6.2,0-11.2,5-11.2,11.2h-22.4c0-6.2-5-11.2-11.2-11.2H300.8V134.4H312v224c0,6.2,5,11.2,11.2,11.2h41.2
	c18.4,0,36.6-3,54.1-8.8c4.8-1.6,9.8-2.4,14.9-2.4c12.6,0,24.4,4.9,33.3,13.8l5.3,5.3c4.3,4.3,11.5,4.3,15.8,0l5.3-5.3
	c8.9-8.9,20.7-13.8,33.3-13.8c5.1,0,10.1,0.8,14.9,2.4c17.5,5.8,35.7,8.8,54.1,8.8h41.2c6.2,0,11.2-5,11.2-11.2v-224h11.2V392z"/>
</svg>
